<svg width="62" height="49" viewBox="0 0 62 49" fill="none" xmlns="http://www.w3.org/2000/svg">
<path d="M18.3227 15.8121C16.5856 14.7242 14.5703 14.1647 12.5216 14.2014C11.206 14.2008 9.90477 14.4757 8.70163 15.0086C7.52627 15.4943 6.454 16.1996 5.54204 17.0867C5.2253 17.3992 4.94724 17.7486 4.71384 18.1276V14.6032H0V49H4.71384V35.5963C4.88167 35.7862 4.99841 35.998 5.21002 36.2135C6.19601 37.1371 7.3373 37.8789 8.58123 38.4049C10.1546 39.0812 11.8696 39.3609 13.576 39.2193C15.282 39.0799 16.928 38.5244 18.3701 37.6014C20.0735 36.5025 21.4498 34.9646 22.3543 33.1493C23.3463 31.1539 23.8467 28.9499 23.8137 26.7213C23.8553 24.4726 23.3454 22.2479 22.3287 20.2422C21.4114 18.4347 20.0284 16.9052 18.3227 15.8121ZM18.3227 30.8922C17.7272 32.0838 16.8223 33.093 15.7031 33.814C14.5766 34.5306 13.2651 34.9014 11.9305 34.8804C10.5817 34.897 9.2562 34.527 8.11057 33.814C6.9923 33.0929 6.08866 32.0836 5.49461 30.8922C4.84874 29.5878 4.51285 28.1516 4.51316 26.6958C4.51817 25.2389 4.85903 23.8028 5.5092 22.4993C6.10365 21.3044 7.02307 20.3017 8.16165 19.6067C9.30028 18.9125 10.6121 18.5554 11.9451 18.5768C13.2885 18.56 14.6086 18.9275 15.7505 19.636C16.8604 20.3446 17.757 21.3419 18.3446 22.5212C18.9979 23.8176 19.3225 25.2551 19.2895 26.7067C19.309 28.1647 18.9614 29.6041 18.2789 30.8922H18.3227Z" fill="#D9CAC1"/>
<path d="M47.4664 14.6287H41.855L36.3129 23.164L29.7821 14.6287H23.8132L33.1533 26.6811L23.8607 38.8577H29.4757L35.8678 30.2274L42.4971 38.8796H48.2946L38.9362 26.5752L47.4664 14.6287Z" fill="#D9CAC1"/>
<path d="M56.5419 4.74609H51.7988V38.8837H56.5419V4.74609Z" fill="#D9CAC1"/>
<path d="M56.5422 0V4.74287H61.2851V0H56.5422Z" fill="#D9CAC1"/>
</svg>
